<?xml version="1.0" standalone="no"?>
<!DOCTYPE svg PUBLIC "-//W3C//DTD SVG 20010904//EN"
 "http://www.w3.org/TR/2001/REC-SVG-20010904/DTD/svg10.dtd">
<svg version="1.0" xmlns="http://www.w3.org/2000/svg"
 width="400.000000pt" height="400.000000pt" viewBox="0 0 400.000000 400.000000"
 preserveAspectRatio="xMidYMid meet">
<metadata>
Created by potrace 1.11, written by Peter Selinger 2001-2013
</metadata>
<g transform="translate(0.000000,400.000000) scale(0.100000,-0.100000)"
fill="#000000" stroke="none">
<path d="M1850 3749 c-112 -10 -266 -42 -382 -79 -126 -41 -354 -156 -463
-234 -564 -405 -838 -1089 -709 -1766 42 -218 162 -498 291 -679 455 -635
1265 -896 1996 -645 733 252 1218 960 1184 1729 -25 572 -323 1093 -802 1403
-325 210 -723 307 -1115 271z m377 -174 c676 -96 1201 -586 1343 -1252 28
-128 37 -375 20 -509 -45 -364 -202 -681 -464 -939 -219 -215 -488 -359 -797
-425 -149 -32 -419 -37 -574 -9 -586 103 -1063 513 -1244 1067 -56 172 -75
296 -75 497 0 201 19 330 75 497 243 724 970 1179 1716 1073z"/>
<path d="M1186 2974 c-14 -14 -16 -68 -16 -445 0 -278 4 -437 10 -450 10 -17
23 -19 158 -19 l148 0 -2 29 c-3 38 22 86 51 99 35 16 506 16 540 0 32 -14 55
-56 55 -98 l0 -30 143 0 c98 0 147 4 155 12 16 16 17 869 2 899 -10 18 -28 19
-620 19 -540 0 -610 -2 -624 -16z m362 -208 c68 -35 78 -128 21 -186 -21 -21
-26 -30 -15 -30 9 0 30 -13 47 -28 25 -23 32 -38 36 -78 5 -62 -21 -108 -75
-131 -38 -16 -162 -25 -219 -16 l-33 5 0 238 c0 219 1 239 18 244 39 11 187
-1 220 -18z m265 -154 c-1 -92 -3 -200 -3 -239 l0 -73 -45 0 -45 0 0 239 0
240 23 3 c12 2 33 2 47 0 l25 -4 -2 -166z m366 149 c24 -13 54 -35 67 -49 60
-68 70 -230 20 -317 -46 -77 -193 -124 -311 -98 l-39 9 -1 234 0 235 25 7 c14
4 63 6 110 4 64 -2 96 -9 129 -25z"/>
<path d="M1407 2713 c-2 -5 -3 -35 -3 -68 l1 -60 39 2 c48 3 76 27 76 65 0 39
-32 68 -74 68 -19 0 -37 -3 -39 -7z"/>
<path d="M1413 2511 c-5 -3 -9 -36 -11 -73 -1 -62 0 -67 21 -70 37 -6 91 10
109 32 20 24 15 67 -11 93 -17 17 -91 30 -108 18z"/>
<path d="M2010 2540 l0 -170 40 0 c98 0 150 59 150 170 0 109 -54 170 -149
170 l-41 0 0 -170z"/>
<path d="M1559 2138 c-17 -6 -19 -17 -19 -91 0 -51 5 -88 12 -95 7 -7 33 -12
60 -12 l47 0 3 -87 3 -88 140 0 140 0 3 88 3 87 48 0 c31 0 53 5 61 15 15 18
16 163 1 178 -12 12 -470 17 -502 5z"/>
<path d="M2007 1853 c-2 -4 -4 -38 -3 -75 l1 -68 -207 0 c-195 0 -209 -1 -228
-20 -11 -11 -20 -32 -20 -47 1 -45 23 -65 76 -69 73 -6 65 -14 -13 -14 -54 0
-73 -4 -85 -17 -23 -28 -28 -51 -16 -78 13 -29 48 -42 111 -40 26 1 50 -2 53
-7 3 -4 -21 -8 -54 -8 -68 0 -92 -18 -92 -67 0 -45 27 -63 96 -64 58 -1 59 -1
25 -13 -61 -22 -76 -64 -40 -110 l20 -26 287 0 c249 0 296 2 354 19 37 10 69
16 72 14 2 -2 22 -4 45 -5 33 0 41 -4 41 -19 0 -18 13 -19 305 -19 l305 0 0
300 0 300 -305 0 c-293 0 -305 -1 -305 -19 0 -16 -9 -20 -50 -23 -28 -1 -61 0
-75 3 -23 7 -244 139 -277 166 -9 8 -18 11 -21 6z m423 -435 l0 -229 -27 3
-28 3 -1 220 c0 121 1 223 3 226 1 4 14 7 28 7 l25 0 0 -230z"/>
<path d="M1665 1072 c-3 -3 -5 -36 -5 -74 l0 -68 145 0 146 0 -3 72 -3 72
-137 2 c-76 0 -140 -1 -143 -4z"/>
</g>
</svg>
